<?xml version="1.0" encoding="utf-8"?>
<!-- Generator: Adobe Illustrator 21.1.0, SVG Export Plug-In . SVG Version: 6.00 Build 0)  -->
<svg version="1.1" id="Layer_1" xmlns="http://www.w3.org/2000/svg" xmlns:xlink="http://www.w3.org/1999/xlink" x="0px" y="0px"
	 viewBox="0 0 362.4 69.6" style="enable-background:new 0 0 362.4 69.6;" xml:space="preserve">
<style type="text/css">
	.st0{fill:#E21E26;}
	.st1{enable-background:new    ;}
	.st2{fill:#FFFFFF;}
</style>
<title>Artboard 1</title>
<polygon class="st0" points="354.6,69.6 0,69.6 5.3,43.3 359.9,43.3 "/>
<g class="st1">
	<path class="st2" d="M22,59.9L27.5,49h4.2l-3.1,14.6h-2.8l1.5-6.9c0.4-1.6,0.7-3.1,1.1-4.4h0l-5.7,11.3h-2.8l-0.6-11.3h0
		c-0.1,0.6-0.2,1.4-0.4,2.3c-0.2,1-0.8,4-1.9,9h-2.8L17.2,49h4L22,59.9L22,59.9z"/>
	<path class="st2" d="M46,54.2c0,1.9-0.3,3.6-1,5.1c-0.7,1.5-1.6,2.6-2.7,3.4c-1.1,0.8-2.5,1.1-4,1.1c-1.7,0-3-0.5-4-1.5
		s-1.4-2.3-1.4-4.1c0-1.8,0.3-3.4,1-4.9s1.6-2.6,2.7-3.4s2.5-1.2,4-1.2c1.7,0,3,0.5,4,1.4C45.5,51.1,46,52.5,46,54.2z M40.4,51.3
		c-0.8,0-1.5,0.3-2.2,0.9c-0.7,0.6-1.2,1.5-1.6,2.5C36.2,55.8,36,57,36,58.2c0,1,0.2,1.7,0.7,2.2c0.4,0.5,1.1,0.8,1.9,0.8
		c0.8,0,1.5-0.3,2.2-0.9s1.2-1.4,1.6-2.5c0.4-1.1,0.6-2.3,0.6-3.6c0-0.9-0.2-1.7-0.7-2.2C41.8,51.6,41.2,51.3,40.4,51.3z"/>
	<path class="st2" d="M59.1,63.6h-3.4l-3.6-11.1h-0.1l0,0.3c-0.2,1.4-0.4,2.7-0.7,3.9l-1.5,6.9h-2.8L50.2,49h3.6l3.4,10.8h0
		c0.1-0.5,0.2-1.2,0.4-2.2c0.2-0.9,0.8-3.8,1.8-8.6h2.7L59.1,63.6z"/>
	<path class="st2" d="M67.8,63.6h-3.1l2.5-12.1h-3.5l0.6-2.6h10.1l-0.6,2.6h-3.5L67.8,63.6z"/>
	<path class="st2" d="M81.4,60.1h-4.7l-1.7,3.5h-3.2l7.7-14.7h3.7l1.5,14.7h-3L81.4,60.1z M81.3,57.5L81,54
		c-0.1-0.9-0.1-1.7-0.1-2.5v-0.4c-0.3,0.8-0.7,1.6-1.1,2.5l-1.9,3.9H81.3z"/>
	<path class="st2" d="M95.1,63.6h-9.8l0.4-2l7.8-10.1H88l0.5-2.6h9.4l-0.4,2L89.6,61h6L95.1,63.6z M91.8,46.4c0-0.6,0.2-1,0.5-1.3
		c0.3-0.3,0.8-0.4,1.3-0.4c0.5,0,0.9,0.1,1.1,0.3c0.3,0.2,0.4,0.5,0.4,0.9c0,0.5-0.1,1-0.4,1.3c-0.3,0.3-0.7,0.5-1.4,0.5
		C92.3,47.6,91.8,47.2,91.8,46.4z"/>
	<path class="st2" d="M111.4,63.6h-9.8l0.4-2l7.8-10.1h-5.4l0.5-2.6h9.4l-0.4,2L105.9,61h6L111.4,63.6z"/>
	<path class="st2" d="M121,49c1.5,0,2.7,0.3,3.5,0.8c0.8,0.5,1.2,1.4,1.2,2.4c0,1-0.3,1.8-0.8,2.5c-0.6,0.7-1.3,1.1-2.4,1.3V56
		c0.7,0.2,1.2,0.5,1.6,1c0.4,0.5,0.6,1.1,0.6,1.8c0,1.5-0.5,2.7-1.5,3.5c-1,0.8-2.4,1.2-4.2,1.2h-5.2l3.1-14.6H121z M117.3,61h1.8
		c0.8,0,1.4-0.2,1.8-0.6c0.4-0.4,0.7-0.9,0.7-1.6c0-1.1-0.6-1.6-1.8-1.6h-1.7L117.3,61z M118.6,54.8h1.5c0.8,0,1.4-0.2,1.8-0.5
		c0.4-0.3,0.6-0.8,0.6-1.4c0-0.9-0.6-1.4-1.7-1.4h-1.5L118.6,54.8z"/>
	<path class="st2" d="M130.6,58l-1.2,5.6h-3.1l3.1-14.6h3.6c1.6,0,2.8,0.3,3.6,1c0.8,0.7,1.2,1.7,1.2,3c0,1.1-0.3,2-0.8,2.7
		c-0.6,0.8-1.4,1.3-2.4,1.7l2.6,6.2h-3.3l-2.1-5.6H130.6z M131.2,55.5h0.8c0.9,0,1.6-0.2,2-0.6c0.5-0.4,0.7-1,0.7-1.7
		c0-0.5-0.2-1-0.5-1.2c-0.3-0.3-0.8-0.4-1.5-0.4H132L131.2,55.5z"/>
	<path class="st2" d="M152.7,54.2c0,1.9-0.3,3.6-1,5.1c-0.7,1.5-1.6,2.6-2.7,3.4c-1.1,0.8-2.5,1.1-4,1.1c-1.7,0-3-0.5-4-1.5
		s-1.4-2.3-1.4-4.1c0-1.8,0.3-3.4,1-4.9s1.6-2.6,2.7-3.4s2.5-1.2,4-1.2c1.7,0,3,0.5,4,1.4C152.2,51.1,152.7,52.5,152.7,54.2z
		 M147.1,51.3c-0.8,0-1.5,0.3-2.2,0.9c-0.7,0.6-1.2,1.5-1.6,2.5c-0.4,1.1-0.6,2.2-0.6,3.5c0,1,0.2,1.7,0.7,2.2
		c0.4,0.5,1.1,0.8,1.9,0.8c0.8,0,1.5-0.3,2.2-0.9s1.2-1.4,1.6-2.5c0.4-1.1,0.6-2.3,0.6-3.6c0-0.9-0.2-1.7-0.7-2.2
		C148.5,51.6,147.9,51.3,147.1,51.3z"/>
	<path class="st2" d="M152,67.9c-0.6,0-1.3-0.1-1.9-0.3v-2.5c0.6,0.1,1.1,0.2,1.6,0.2c0.7,0,1.2-0.2,1.6-0.6c0.4-0.4,0.7-1,0.9-1.9
		l2.9-13.8h3.1l-3,14.2c-0.3,1.6-0.9,2.8-1.8,3.6C154.6,67.5,153.5,67.9,152,67.9z"/>
	<path class="st2" d="M168.8,63.6h-8.2l3.1-14.6h8.2l-0.5,2.5h-5.1l-0.7,3.2h4.8l-0.6,2.5H165l-0.8,3.8h5.1L168.8,63.6z"/>
	<path class="st2" d="M183.7,63.6h-3.4l-3.6-11.1h-0.1l0,0.3c-0.2,1.4-0.4,2.7-0.7,3.9l-1.5,6.9h-2.8l3.1-14.6h3.6l3.4,10.8h0
		c0.1-0.5,0.2-1.2,0.4-2.2c0.2-0.9,0.8-3.8,1.8-8.6h2.7L183.7,63.6z M179.8,47.5c0.5-0.6,1.3-1.6,2.2-3h3.4v0.2
		c-0.3,0.4-0.8,0.9-1.5,1.5s-1.4,1.2-1.9,1.6h-2.1V47.5z"/>
	<path class="st2" d="M199.9,49c1.5,0,2.7,0.3,3.5,0.8c0.8,0.5,1.2,1.4,1.2,2.4c0,1-0.3,1.8-0.8,2.5s-1.3,1.1-2.4,1.3V56
		c0.7,0.2,1.2,0.5,1.6,1s0.6,1.1,0.6,1.8c0,1.5-0.5,2.7-1.5,3.5c-1,0.8-2.4,1.2-4.2,1.2h-5.2l3.1-14.6H199.9z M196.1,61h1.8
		c0.8,0,1.4-0.2,1.8-0.6c0.4-0.4,0.7-0.9,0.7-1.6c0-1.1-0.6-1.6-1.8-1.6H197L196.1,61z M197.5,54.8h1.5c0.8,0,1.4-0.2,1.8-0.5
		s0.6-0.8,0.6-1.4c0-0.9-0.6-1.4-1.7-1.4h-1.5L197.5,54.8z"/>
	<path class="st2" d="M219.1,49l-2,9.5c-0.4,1.8-1.1,3.1-2.2,4c-1.1,0.9-2.5,1.4-4.2,1.4c-1.4,0-2.5-0.4-3.3-1.1
		c-0.8-0.8-1.2-1.8-1.2-3.1c0-0.5,0-0.9,0.2-1.4l2-9.2h3.1l-1.9,9.2c-0.1,0.5-0.2,0.9-0.2,1.3c0,1.2,0.6,1.8,1.9,1.8
		c0.8,0,1.5-0.3,2-0.8c0.5-0.5,0.8-1.3,1-2.3L216,49H219.1z"/>
	<path class="st2" d="M232.1,54.5c0,1.9-0.3,3.5-1,4.9c-0.7,1.4-1.6,2.4-2.8,3.1s-2.7,1.1-4.4,1.1h-4.5l3.1-14.6h4
		c1.8,0,3.2,0.5,4.2,1.4C231.6,51.3,232.1,52.7,232.1,54.5z M224.1,61c1,0,1.8-0.3,2.6-0.8c0.7-0.5,1.3-1.3,1.7-2.2
		c0.4-1,0.6-2.1,0.6-3.4c0-1-0.2-1.8-0.7-2.3s-1.2-0.8-2.1-0.8H225l-2,9.5H224.1z"/>
	<path class="st2" d="M247.1,54.2c0,1.9-0.3,3.6-1,5.1c-0.7,1.5-1.6,2.6-2.7,3.4c-1.1,0.8-2.5,1.1-4,1.1c-1.7,0-3-0.5-4-1.5
		c-1-1-1.4-2.3-1.4-4.1c0-1.8,0.3-3.4,1-4.9c0.7-1.5,1.6-2.6,2.7-3.4s2.5-1.2,4-1.2c1.7,0,3,0.5,4,1.4
		C246.6,51.1,247.1,52.5,247.1,54.2z M241.5,51.3c-0.8,0-1.5,0.3-2.2,0.9c-0.7,0.6-1.2,1.5-1.6,2.5c-0.4,1.1-0.6,2.2-0.6,3.5
		c0,1,0.2,1.7,0.7,2.2c0.4,0.5,1.1,0.8,1.9,0.8c0.8,0,1.5-0.3,2.2-0.9s1.2-1.4,1.6-2.5c0.4-1.1,0.6-2.3,0.6-3.6
		c0-0.9-0.2-1.7-0.7-2.2C242.9,51.6,242.3,51.3,241.5,51.3z"/>
	<path class="st2" d="M257.8,53.4c-0.3,1-0.7,2-1.2,3l-3.2,7.2H250L249.6,49h2.9l0.1,8c0,0.3,0,0.9,0,1.7c0,0.8-0.1,1.4-0.1,1.7h0.1
		c0.1-0.4,0.4-1,0.7-1.8c0.3-0.8,0.5-1.3,0.6-1.5l3.7-8.2h2.7l0.2,8.7c0,1,0,1.9-0.1,2.7h0.1c0.3-0.9,0.7-2,1.3-3.5l3.3-8h3.1
		l-6.5,14.6H258l-0.2-7.2l0-1.4C257.8,54.4,257.8,53.9,257.8,53.4L257.8,53.4z"/>
	<path class="st2" d="M266.6,63.6l3.1-14.6h3.1L270.2,61h5.1l-0.5,2.6H266.6z"/>
	<path class="st2" d="M285.1,60.1h-4.7l-1.7,3.5h-3.2l7.7-14.7h3.7l1.5,14.7h-3L285.1,60.1z M285,57.5l-0.3-3.5
		c-0.1-0.9-0.1-1.7-0.1-2.5v-0.4c-0.3,0.8-0.7,1.6-1.1,2.5l-1.9,3.9H285z"/>
	<path class="st2" d="M302,63.6h-3.4L295,52.5H295l0,0.3c-0.2,1.4-0.4,2.7-0.7,3.9l-1.5,6.9h-2.8l3.1-14.6h3.6l3.4,10.8h0
		c0.1-0.5,0.2-1.2,0.4-2.2c0.2-0.9,0.8-3.8,1.8-8.6h2.7L302,63.6z"/>
	<path class="st2" d="M311.3,54.9L315,49h3.4l-6.2,9l-1.2,5.6h-3l1.2-5.6l-2.4-9h3.1L311.3,54.9z"/>
	<path class="st2" d="M325.6,51.3c-0.9,0-1.7,0.3-2.4,0.8c-0.7,0.5-1.3,1.3-1.7,2.4c-0.4,1.1-0.6,2.2-0.6,3.4c0,1.1,0.2,1.9,0.7,2.5
		c0.5,0.5,1.2,0.8,2.2,0.8c1,0,2.1-0.3,3.4-0.8V63c-1.3,0.5-2.7,0.8-4,0.8c-1.7,0-3-0.5-4-1.5s-1.4-2.4-1.4-4.2c0-1.7,0.3-3.4,1-4.8
		c0.7-1.5,1.6-2.6,2.8-3.4s2.5-1.1,4-1.1c0.8,0,1.6,0.1,2.2,0.2c0.6,0.2,1.3,0.4,2.1,0.8l-1.2,2.5c-0.7-0.4-1.3-0.7-1.8-0.8
		C326.6,51.4,326.1,51.3,325.6,51.3z"/>
	<path class="st2" d="M340.5,63.6h-3.1l1.3-6.3h-4.7l-1.3,6.3h-3.1l3.1-14.6h3.1l-1.2,5.7h4.7l1.2-5.7h3.1L340.5,63.6z"/>
</g>
<path class="st2" d="M182.8,0.5c3.6,0,6.3,0.6,8.1,1.9c1.8,1.3,2.9,3.5,2.8,5.7c0.1,2.1-0.6,4.2-2,5.8c-1.5,1.6-3.4,2.7-5.6,3v0.1
	c1.5,0.3,2.8,1.1,3.8,2.3c1,1.2,1.5,2.7,1.4,4.2c0.2,3.2-1.2,6.3-3.6,8.3c-2.4,1.9-5.7,2.9-10,2.9h-12.2l7.3-34.4L182.8,0.5z
	 M173.9,28.9h4.2c1.6,0.1,3.1-0.4,4.3-1.4c1-1,1.6-2.4,1.5-3.8c0-2.5-1.4-3.8-4.3-3.8h-3.9L173.9,28.9z M177.1,14.2h3.5
	c1.5,0.1,3-0.3,4.3-1.1c1-0.8,1.5-2,1.4-3.3c0-2.2-1.3-3.2-4-3.2h-3.6L177.1,14.2z"/>
<path class="st2" d="M227.8,12.9c0.1,4.1-0.7,8.2-2.3,11.9c-1.3,3.2-3.5,6-6.4,8c-2.8,1.8-6,2.7-9.3,2.7c-4,0-7.1-1.2-9.4-3.5
	c-2.3-2.3-3.4-5.5-3.4-9.6c0-3.9,0.8-7.9,2.3-11.5c1.4-3.2,3.6-6,6.4-8c2.8-1.9,6.1-2.9,9.5-2.8c4,0,7.1,1.1,9.3,3.4
	C226.7,5.7,227.8,8.8,227.8,12.9z M214.6,6.1c-2,0-3.8,0.8-5.2,2.1c-1.7,1.6-3,3.7-3.7,5.9c-0.9,2.6-1.4,5.4-1.4,8.2
	c-0.1,1.9,0.4,3.7,1.6,5.2c1.1,1.2,2.7,1.9,4.4,1.8c1.9,0,3.8-0.7,5.2-2c1.7-1.6,3-3.6,3.7-5.8c0.9-2.7,1.4-5.5,1.3-8.4
	c0.1-1.9-0.4-3.7-1.5-5.2C217.9,6.6,216.3,6,214.6,6.1L214.6,6.1z"/>
<path class="st2" d="M247.9,0.5c3.6,0,6.3,0.6,8.1,1.9c1.8,1.3,2.9,3.5,2.8,5.7c0.1,2.1-0.6,4.2-2,5.8c-1.5,1.6-3.4,2.7-5.6,3v0.1
	c1.5,0.3,2.8,1.2,3.8,2.3c1,1.2,1.5,2.7,1.4,4.2c0.2,3.2-1.2,6.3-3.6,8.3c-2.4,1.9-5.7,2.9-10,2.9h-12.2l7.3-34.4L247.9,0.5z
	 M239,28.9h4.2c1.6,0.1,3.1-0.4,4.3-1.4c1.1-1,1.6-2.4,1.6-3.8c0-2.5-1.4-3.8-4.3-3.8h-3.9L239,28.9z M242.1,14.2h3.5
	c1.5,0.1,3-0.3,4.3-1.1c1-0.8,1.5-2,1.4-3.3c0-2.2-1.3-3.2-4-3.2h-3.6L242.1,14.2z"/>
<path class="st2" d="M281.5,24.8c0.1,3-1.2,5.9-3.5,7.8c-2.3,1.9-5.5,2.9-9.4,2.9c-2.9,0.1-5.9-0.6-8.4-2.1v-6.5
	c2.5,1.6,5.4,2.4,8.4,2.5c1.4,0.1,2.9-0.3,4.1-1c1-0.6,1.5-1.7,1.5-2.8c0-0.6-0.1-1.2-0.3-1.8c-0.2-0.5-0.5-1-0.9-1.4
	c-0.9-0.9-1.9-1.7-2.9-2.4c-1.8-1.2-3.4-2.8-4.6-4.6c-0.9-1.5-1.3-3.2-1.3-4.9c0-1.9,0.5-3.8,1.5-5.4c1-1.6,2.4-2.9,4.2-3.7
	c1.9-0.9,4.1-1.4,6.2-1.3c3.3,0,6.5,0.8,9.4,2.3l-2.6,5.5c-2.1-1.1-4.4-1.6-6.8-1.7c-1.2,0-2.3,0.3-3.2,1.1
	c-0.8,0.7-1.3,1.7-1.2,2.8c0,0.9,0.3,1.8,0.8,2.5c1,1.1,2.2,2.1,3.5,2.8c1.7,1.1,3.2,2.5,4.3,4.2C281,21.1,281.5,22.9,281.5,24.8z"
	/>
<path class="st2" d="M298.2,35H291l6-28.3h-8.3l1.3-6.1h23.8l-1.3,6.1h-8.3L298.2,35z"/>
<path class="st2" d="M330.2,26.8H319l-4,8.2h-7.5l18-34.6h8.8l3.5,34.6h-7L330.2,26.8z M329.8,20.6l-0.6-8.2c-0.2-2.1-0.2-4.1-0.2-6
	V5.6c-0.7,1.9-1.5,3.9-2.6,6l-4.4,9H329.8z"/>
<path class="st2" d="M341.9,35l7.3-34.4h7.2l-6,28.4h12l-1.3,6L341.9,35z"/>
</svg>
